<?xml version="1.0" encoding="UTF-8"?>
<svg version="1.1" xmlns="http://www.w3.org/2000/svg" width="1280" height="720">
<path d="M0 0 C422.4 0 844.8 0 1280 0 C1280 237.6 1280 475.2 1280 720 C857.6 720 435.2 720 0 720 C0 482.4 0 244.8 0 0 Z " fill="#233652" transform="translate(0,0)"/>
<path d="M0 0 C3.97247162 1.57355004 7.67762234 3.55361659 11.42578125 5.59765625 C13.13600846 6.51434722 14.84695752 7.42969263 16.55859375 8.34375 C17.41098633 8.79991699 18.26337891 9.25608398 19.14160156 9.72607422 C22.66726363 11.59337963 26.22724684 13.38657799 29.80078125 15.16015625 C30.44539307 15.48040771 31.09000488 15.80065918 31.75415039 16.13061523 C33.05050187 16.77383811 34.3471317 17.41650032 35.64404297 18.05859375 C39.05496046 19.75009759 42.45866193 21.4560216 45.86328125 23.16015625 C47.18095736 23.81907486 48.49866503 24.47793036 49.81640625 25.13671875 C55.08203125 27.76953125 60.34765625 30.40234375 65.61328125 33.03515625 C64.11139976 36.03891923 61.54545746 36.44882306 58.58203125 37.71484375 C55.01583307 39.30086347 51.53613717 41.03005615 48.05078125 42.78515625 C47.36781982 43.12869141 46.6848584 43.47222656 45.98120117 43.82617188 C44.56841884 44.53755781 43.15590561 45.2494784 41.74365234 45.96191406 C37.62216683 48.03824346 33.49285888 50.09900507 29.36230469 52.15722656 C26.24764822 53.71068277 23.13954851 55.27426261 20.046875 56.87109375 C18.97566406 57.42023438 17.90445312 57.969375 16.80078125 58.53515625 C15.39892578 59.2621875 15.39892578 59.2621875 13.96875 60.00390625 C11.61328125 61.03515625 11.61328125 61.03515625 8.61328125 61.03515625 C8.61328125 61.69515625 8.61328125 62.35515625 8.61328125 63.03515625 C7.62328125 63.03515625 6.63328125 63.03515625 5.61328125 63.03515625 C5.61328125 64.35515625 5.61328125 65.67515625 5.61328125 67.03515625 C9.90328125 67.03515625 14.19328125 67.03515625 18.61328125 67.03515625 C18.61328125 69.01515625 18.61328125 70.99515625 18.61328125 73.03515625 C5.74328125 73.03515625 -7.12671875 73.03515625 -20.38671875 73.03515625 C-20.38671875 71.05515625 -20.38671875 69.07515625 -20.38671875 67.03515625 C-16.09671875 67.03515625 -11.80671875 67.03515625 -7.38671875 67.03515625 C-7.38671875 65.71515625 -7.38671875 64.39515625 -7.38671875 63.03515625 C-8.54171875 62.70515625 -9.69671875 62.37515625 -10.88671875 62.03515625 C-19.94816065 59.0242341 -28.49155406 54.24612731 -36.78515625 49.5625 C-41.42491179 46.96694392 -46.1875476 44.70189018 -51.01171875 42.47265625 C-56.62351379 39.87742516 -62.06213769 37.18279733 -67.38671875 34.03515625 C-65.75345703 30.76863282 -62.22212952 29.97069134 -59.01171875 28.53515625 C-51.37875013 25.05538428 -43.97447612 21.24456041 -36.63330078 17.18554688 C-35.8751709 16.77498047 -35.11704102 16.36441406 -34.3359375 15.94140625 C-33.66908936 15.57337891 -33.00224121 15.20535156 -32.31518555 14.82617188 C-30.38671875 14.03515625 -30.38671875 14.03515625 -26.38671875 14.03515625 C-26.38671875 13.37515625 -26.38671875 12.71515625 -26.38671875 12.03515625 C-25.24074219 11.5040625 -24.09476563 10.97296875 -22.9140625 10.42578125 C-21.38404115 9.71239706 -19.85409735 8.99884652 -18.32421875 8.28515625 C-17.57205078 7.93710938 -16.81988281 7.5890625 -16.04492188 7.23046875 C-12.44289613 5.54640476 -9.00655285 3.82750193 -5.640625 1.70703125 C-2.38671875 0.03515625 -2.38671875 0.03515625 0 0 Z " fill="#3D4A5F" transform="translate(1134.38671875,199.96484375)"/>
<path d="M0 0 C0.79052765 -0.00570007 1.5810553 -0.01140015 2.39553833 -0.01727295 C4.07178401 -0.02673708 5.74804842 -0.03326252 7.42431641 -0.03710938 C9.99023933 -0.04680857 12.55535927 -0.07781494 15.12109375 -0.109375 C16.74739106 -0.11590543 18.37369412 -0.12115574 20 -0.125 C20.76883514 -0.1373468 21.53767029 -0.1496936 22.32980347 -0.16241455 C27.65685341 -0.14012658 27.65685341 -0.14012658 29.83638 1.43170166 C31.51411831 3.72413479 31.50725261 5.07565669 31.50512695 7.90234375 C31.51447014 9.32897339 31.51447014 9.32897339 31.52400208 10.78442383 C31.51479233 11.80947021 31.50558258 12.8345166 31.49609375 13.890625 C31.49684151 15.47170044 31.49684151 15.47170044 31.49760437 17.0847168 C31.49526314 19.31398401 31.48553176 21.54325383 31.46899414 23.77246094 C31.44540522 27.18969293 31.44843257 30.60614481 31.45507812 34.0234375 C31.44950135 36.18750466 31.44239148 38.35156853 31.43359375 40.515625 C31.43496086 42.05319458 31.43496086 42.05319458 31.43635559 43.62182617 C31.42682358 44.5729126 31.41729156 45.52399902 31.4074707 46.50390625 C31.40286331 47.34091064 31.39825592 48.17791504 31.39350891 49.0402832 C31.1328125 51.203125 31.1328125 51.203125 29.1328125 54.203125 C26.38995781 54.4948977 23.87623711 54.59918298 21.1328125 54.56640625 C19.94558594 54.56715401 19.94558594 54.56715401 18.734375 54.56791687 C17.05987031 54.56557489 15.38536221 54.55583902 13.7109375 54.53930664 C11.1429101 54.51571775 8.57592064 54.51874387 6.0078125 54.52539062 C4.38280629 54.51981388 2.75780446 54.51270402 1.1328125 54.50390625 C0.36195312 54.50481766 -0.40890625 54.50572906 -1.203125 54.50666809 C-6.63616203 54.43415047 -6.63616203 54.43415047 -8.8671875 52.203125 C-9.11442566 50.03318787 -9.11442566 50.03318787 -9.11010742 47.31030273 C-9.11318405 46.29262314 -9.11626068 45.27494354 -9.11943054 44.22642517 C-9.11224503 43.12432205 -9.10505951 42.02221893 -9.09765625 40.88671875 C-9.09719803 39.75992203 -9.09673981 38.63312531 -9.0962677 37.47218323 C-9.09324286 35.08732044 -9.08534971 32.70245967 -9.07299805 30.31762695 C-9.05474632 26.65243591 -9.05248827 22.98749735 -9.05273438 19.32226562 C-9.04781923 17.01041447 -9.04199092 14.69856503 -9.03515625 12.38671875 C-9.03404343 11.2825914 -9.0329306 10.17846405 -9.03178406 9.0408783 C-9.02540421 8.02635086 -9.01902435 7.01182343 -9.01245117 5.96655273 C-9.00673347 4.61991798 -9.00673347 4.61991798 -9.00090027 3.24607849 C-8.68852833 -1.52654974 -3.71731476 0.02044051 0 0 Z " fill="#32496B" transform="translate(75.8671875,132.796875)"/>
<path d="M0 0 C5.56875 -0.020625 11.1375 -0.04125 16.875 -0.0625 C18.63183105 -0.071604 20.38866211 -0.08070801 22.19873047 -0.09008789 C23.58821537 -0.09300797 24.97770112 -0.09555631 26.3671875 -0.09765625 C27.09107666 -0.10277222 27.81496582 -0.10788818 28.56079102 -0.11315918 C33.7718564 -0.1140718 33.7718564 -0.1140718 36 1 C36.0505916 7.65686814 36.0856876 14.31368694 36.10986328 20.97070312 C36.11993859 23.23667249 36.13359918 25.50262881 36.15087891 27.76855469 C36.17506011 31.02021501 36.18646763 34.27170387 36.1953125 37.5234375 C36.20563507 38.54118256 36.21595764 39.55892761 36.22659302 40.60751343 C36.22681961 42.01874985 36.22681961 42.01874985 36.22705078 43.45849609 C36.231492 44.28900482 36.23593323 45.11951355 36.24050903 45.97518921 C36 48 36 48 34 50 C31.41996628 50.17496218 28.94603704 50.23176368 26.3671875 50.1953125 C25.36764038 50.19229126 25.36764038 50.19229126 24.34790039 50.18920898 C21.85686365 50.17873888 19.36592497 50.15081625 16.875 50.125 C8.521875 50.063125 8.521875 50.063125 0 50 C0 33.5 0 17 0 0 Z " fill="#324A6A" transform="translate(154,137)"/>
<path d="M0 0 C1.01513672 0.00012085 1.01513672 0.00012085 2.05078125 0.00024414 C4.10958694 -0.0019368 6.16785212 -0.02007344 8.2265625 -0.0390625 C9.52078125 -0.04099609 10.815 -0.04292969 12.1484375 -0.04492188 C13.34130371 -0.04903076 14.53416992 -0.05313965 15.76318359 -0.05737305 C18.75 0.18554688 18.75 0.18554688 21.75 2.18554688 C22.1242218 4.04504395 22.1242218 4.04504395 22.12231445 6.328125 C22.13165764 7.60955383 22.13165764 7.60955383 22.14118958 8.91687012 C22.13197983 9.84084595 22.12277008 10.76482178 22.11328125 11.71679688 C22.11402901 13.13708191 22.11402901 13.13708191 22.11479187 14.58605957 C22.11244895 16.59010921 22.10270768 18.59416166 22.08618164 20.59814453 C22.06259533 23.67311803 22.06561822 26.74722474 22.07226562 29.82226562 C22.06668892 31.76628123 22.0595791 33.71029318 22.05078125 35.65429688 C22.05214836 37.04026062 22.05214836 37.04026062 22.05354309 38.45422363 C22.04401108 39.30850952 22.03447906 40.16279541 22.0246582 41.04296875 C22.02005081 41.7963855 22.01544342 42.54980225 22.01069641 43.3260498 C21.75 45.18554688 21.75 45.18554688 19.75 47.18554688 C16.67724609 47.41259766 16.67724609 47.41259766 12.7734375 47.38085938 C12.08819 47.37802948 11.4029425 47.37519958 10.69692993 47.37228394 C8.50610973 47.36107969 6.31569684 47.33597546 4.125 47.31054688 C2.6406309 47.30051735 1.1562554 47.29139145 -0.328125 47.28320312 C-3.96888261 47.26113982 -7.60940156 47.22660863 -11.25 47.18554688 C-11.27527002 40.65275901 -11.29283292 34.11998366 -11.30493164 27.5871582 C-11.30997317 25.36286956 -11.31680623 23.13858425 -11.32543945 20.91430664 C-11.33751298 17.72476379 -11.34322996 14.53526459 -11.34765625 11.34570312 C-11.35281754 10.34467056 -11.35797882 9.343638 -11.36329651 8.31227112 C-11.36337204 7.39139206 -11.36344757 6.470513 -11.36352539 5.52172852 C-11.365746 4.70676407 -11.36796661 3.89179962 -11.37025452 3.05213928 C-11.04785221 -1.95219414 -3.71456456 0.01668218 0 0 Z " fill="#32496A" transform="translate(125.25,139.814453125)"/>
<path d="M0 0 C2.22976894 0.01092123 4.45953998 0.02067303 6.6893158 0.03007507 C73.10106231 0.31776598 139.55130971 2.909388 205.78459167 7.82756042 C209.34120521 8.08951027 212.89848314 8.34188279 216.45574951 8.5947876 C226.69452815 9.32297623 236.9310484 10.07869033 247.16648865 10.85227966 C249.11737856 10.99911538 251.06844021 11.14366466 253.01951599 11.28800964 C268.25265505 12.41598313 283.42437484 13.92489784 298.60594177 15.6068573 C305.07807715 16.31957549 311.55286273 17.00748748 318.02732849 17.69865417 C320.39713134 17.95245603 322.76692409 18.20635223 325.13670349 18.46037292 C326.13153748 18.56696228 327.12637146 18.67355164 328.15135193 18.78337097 C328.85292419 18.85853943 329.55449646 18.93370789 330.27732849 19.01115417 C330.27732849 19.67115417 330.27732849 20.33115417 330.27732849 21.01115417 C325.69938761 20.64250073 321.1217921 20.26984033 316.54441833 19.89421082 C315.003482 19.76823715 313.46247143 19.64316666 311.92137146 19.51921082 C302.60974214 18.7694673 293.31273265 17.92430233 284.01953125 16.97157288 C265.43760043 15.06732799 246.83839863 13.50722053 228.21482849 12.07365417 C227.38658318 12.00968948 226.55833786 11.94572479 225.7049942 11.87982178 C200.22433283 9.91538655 174.73678831 8.21682222 149.21521378 6.88247299 C146.99680508 6.7661098 144.77852377 6.64755179 142.56025696 6.52851868 C131.46933685 5.93812023 120.37531109 5.44806569 109.27732849 5.01115417 C108.19197311 4.96840866 107.10661774 4.92566315 105.9883728 4.88162231 C64.23492597 3.25758199 22.53149418 2.67385371 -19.25101852 2.75320435 C-23.81404688 2.76177438 -28.37707523 2.76624643 -32.94010925 2.77055359 C-76.49101954 2.81592859 -120.01921988 2.98519201 -163.534729 4.91439819 C-165.84069456 5.01637343 -168.14672797 5.11670561 -170.45277405 5.21684265 C-212.91142637 7.06720599 -255.32512597 9.43732522 -297.71388245 12.50675964 C-305.02045892 13.03515165 -312.32852396 13.54110464 -319.63673401 14.04631042 C-340.45388408 15.49187471 -361.26036834 16.95586853 -382.03419495 18.93717957 C-392.54635191 19.93327483 -403.06691137 20.74043779 -413.59767151 21.51115417 C-425.01654846 22.34836617 -436.42982414 23.21255737 -447.83601379 24.21022034 C-463.36965206 25.56874797 -478.9064151 26.89313884 -494.44634438 28.17766953 C-497.89576761 28.46294683 -501.34492114 28.75082761 -504.79353333 29.04576111 C-519.79735474 30.32700337 -534.65864169 31.40601579 -549.72267151 31.01115417 C-549.72267151 30.68115417 -549.72267151 30.35115417 -549.72267151 30.01115417 C-532.45869958 28.39382159 -515.19770445 26.85023872 -497.90235901 25.60490417 C-486.61106436 24.79101091 -475.32292094 23.93516748 -464.03517151 23.07365417 C-462.89616394 22.98675323 -461.75715637 22.89985229 -460.58363342 22.81031799 C-445.83087253 21.68061741 -431.0962442 20.44982372 -416.36988831 19.01750183 C-404.90362926 17.90813534 -393.425 17.05525247 -381.93458557 16.24064636 C-376.69615371 15.86635889 -371.45923682 15.47313219 -366.22267151 15.07365417 C-365.16008118 14.99292664 -364.09749084 14.9121991 -363.00270081 14.82902527 C-357.00836715 14.36618678 -351.01905239 13.86482227 -345.03126526 13.32365417 C-322.77301149 11.31718453 -300.49989724 9.89074011 -278.1907196 8.57817078 C-268.98446764 8.03373549 -259.78194108 7.43796485 -250.57936096 6.83512878 C-207.54576023 4.01766637 -164.51631105 2.31221439 -121.41017151 1.11399841 C-118.04553361 1.02015879 -114.68097395 0.9239172 -111.31642151 0.82707214 C-74.21676034 -0.22443873 -37.11070852 -0.18749343 0 0 Z " fill="#36465F" transform="translate(949.7226715087891,379.9888458251953)"/>
<path d="M0 0 C16.11429208 1.07969927 32.20917808 2.33621749 48.30361938 3.67666626 C66.54786683 5.19513996 84.7927223 6.56851355 103.06231689 7.74334717 C117.16299332 8.65121117 131.24628455 9.68676244 145.32324219 10.91040039 C187.10957051 14.49594684 229.10977774 16.12971722 271 18 C271.73976326 18.03324371 272.47952652 18.06648743 273.24170685 18.10073853 C319.77237405 20.18534854 366.31959159 20.18004224 412.88697386 20.18704796 C415.23917504 20.18749793 417.59137578 20.18834461 419.94357681 20.18928528 C429.00448666 20.19250153 438.06535345 20.18826252 447.12625313 20.17401314 C449.91388723 20.16966126 452.70151174 20.16718555 455.48914909 20.16651726 C471.61399355 20.15750986 487.69654054 19.88696304 503.80822754 19.22238159 C513.28692332 18.84737764 522.76578679 18.89067092 532.25 18.9375 C534.09765498 18.94254646 535.94531136 18.94710358 537.79296875 18.95117188 C542.19534911 18.96187977 546.59765745 18.9789532 551 19 C551 19.33 551 19.66 551 20 C452.44734489 26.06247081 352.58992858 24.63236718 201.85369873 17.16601562 C199.26469233 17.01539863 196.67559366 16.86656091 194.08642578 16.71875 C128.98083506 12.99595277 63.96472696 7.62880612 -1 2 C-0.67 1.34 -0.34 0.68 0 0 Z " fill="#33445F" transform="translate(513,264)"/>
<path d="M0 0 C3.3345682 0.19801755 6.66958379 0.38674213 10.00476074 0.57421875 C42.20990261 2.39556266 74.38260611 4.65650133 106.54954147 7.05226135 C109.10668009 7.24255927 111.6638855 7.43193876 114.22109985 7.62121582 C134.43791717 9.12117763 154.61970799 10.81938219 174.79014587 12.8535614 C180.03473556 13.37782888 185.28187403 13.87482392 190.5291748 14.37109375 C192.21537459 14.53123034 193.90157272 14.69138437 195.58776855 14.8515625 C196.74405762 14.96113281 197.90034668 15.07070313 199.0916748 15.18359375 C199.0916748 15.51359375 199.0916748 15.84359375 199.0916748 16.18359375 C189.58480338 16.31266862 180.24892951 15.9613935 170.7713623 15.1953125 C169.4331505 15.09100278 168.09490277 14.98715314 166.75662231 14.88372803 C163.22195963 14.60918913 159.68785997 14.32796466 156.15383911 14.04529953 C153.2009836 13.8101071 150.24779456 13.57926582 147.29459 13.34850407 C132.05589667 12.15770649 116.82110353 10.92532555 101.5916748 9.62109375 C64.47293153 6.44721763 27.27661415 3.87955898 -9.94384766 2.2689209 C-11.77356742 2.18944696 -13.60315943 2.10704679 -15.43273926 2.02441406 C-23.92239259 1.64961159 -32.41318427 1.3947373 -40.9083252 1.18359375 C-41.86458801 1.15932312 -42.82085083 1.13505249 -43.80609131 1.11004639 C-76.45034483 0.29032735 -108.99711544 0.06273248 -141.63635254 1.11328125 C-144.87249782 1.21343275 -148.10911258 1.29170949 -151.3458252 1.37109375 C-170.45420782 1.89193553 -189.50121052 3.43133859 -208.54772949 4.99151611 C-210.75294785 5.17095096 -212.95846663 5.34587374 -215.16418457 5.51904297 C-243.1386516 7.74724978 -271.36906998 11.1467355 -298.82507324 17.06616211 C-303.65000097 18.08375334 -308.00776947 18.32691709 -312.9083252 18.18359375 C-310.09762498 15.37289354 -307.03043547 15.36667681 -303.2442627 14.81640625 C-302.46899231 14.69686081 -301.69372192 14.57731537 -300.8949585 14.45414734 C-298.35885179 14.06461904 -295.82119402 13.68645607 -293.2833252 13.30859375 C-290.65103553 12.90884714 -288.0191393 12.50658786 -285.38729858 12.10389709 C-283.64160812 11.83682409 -281.8957785 11.57065913 -280.14981079 11.30540466 C-274.51021993 10.44467762 -268.89224275 9.49648659 -263.27722168 8.48706055 C-251.40512872 6.3627809 -239.511033 5.15718029 -227.50256348 4.1340332 C-226.19916016 4.022771 -224.89575684 3.91150879 -223.55285645 3.796875 C-222.39116943 3.70188721 -221.22948242 3.60689941 -220.03259277 3.5090332 C-217.2627095 3.2205082 -214.63126205 2.74905538 -211.9083252 2.18359375 C-203.28634821 1.13243976 -194.57489482 0.72396054 -185.9083252 0.18359375 C-185.16697327 0.13656311 -184.42562134 0.08953247 -183.6618042 0.04107666 C-122.80772096 -3.76220286 -60.85607702 -3.64999587 0 0 Z " fill="#2D4465" transform="translate(312.9083251953125,248.81640625)"/>
<path d="M0 0 C4.29 0 8.58 0 13 0 C13 13.2 13 26.4 13 40 C17.29 40 21.58 40 26 40 C26 41.98 26 43.96 26 46 C13.13 46 0.26 46 -13 46 C-13 44.02 -13 42.04 -13 40 C-8.71 40 -4.42 40 0 40 C0 26.8 0 13.6 0 0 Z " fill="#515C6E" transform="translate(1127,227)"/>
<path d="M0 0 C8.13728277 0.52164146 16.08821015 1.39525172 24.125 2.75 C81.37652611 11.83124745 139.04576892 14.70843588 196.94810945 14.45773423 C201.70514036 14.43856576 206.46193727 14.43718606 211.21899414 14.44604492 C248.56162591 14.51348164 285.73259583 13.46228803 323 11 C324.66348921 10.8901883 324.66348921 10.8901883 326.36058426 10.77815819 C336.3054963 10.11867058 346.24926667 9.44590924 356.18961239 8.7205801 C365.4781195 8.05591405 374.68784357 7.84636893 384 8 C384 8.33 384 8.66 384 9 C382.96705811 9.08564209 381.93411621 9.17128418 380.86987305 9.25952148 C376.98767534 9.5815141 373.10552541 9.90407978 369.22338867 10.22680664 C367.55250294 10.36563155 365.88160479 10.50430708 364.21069336 10.64282227 C361.79016788 10.84350636 359.36968961 11.04475212 356.94921875 11.24609375 C356.21853683 11.3065538 355.48785492 11.36701385 354.73503113 11.42930603 C351.6700884 11.68469113 348.60611364 11.94190129 345.54454041 12.23536682 C298.46795693 16.73423418 250.85503174 17.40320023 203.60480118 17.37650681 C200.36318621 17.3750232 197.12158837 17.37711953 193.87997437 17.37966919 C144.61161452 17.39419089 95.90105776 14.58273476 47 8.5625 C45.20925049 8.34468369 45.20925049 8.34468369 43.38232422 8.12246704 C28.77589866 6.33403556 14.37839644 4.14681125 0 1 C0 0.67 0 0.34 0 0 Z " fill="#2E4465" transform="translate(16,403)"/>
<path d="M0 0 C4.5634852 -0.13483705 9.12299441 -0.23407207 13.6875 -0.3125 C15.62786133 -0.3753418 15.62786133 -0.3753418 17.60742188 -0.43945312 C19.47817383 -0.46362305 19.47817383 -0.46362305 21.38671875 -0.48828125 C23.10701294 -0.52755737 23.10701294 -0.52755737 24.86206055 -0.56762695 C28.91556923 0.1656188 30.3894432 1.91052041 33 5 C31.95125002 7.62187494 31.35068687 8.79371361 28.875 10.25 C28.25625 10.4975 27.6375 10.745 27 11 C27 11.66 27 12.32 27 13 C18.09 13 9.18 13 0 13 C0 8.71 0 4.42 0 0 Z " fill="#374A66" transform="translate(267,534)"/>
<path d="M0 0 C0.60328125 0.08378906 1.2065625 0.16757812 1.828125 0.25390625 C3.02695313 0.40666016 3.02695313 0.40666016 4.25 0.5625 C5.03890625 0.66691406 5.8278125 0.77132813 6.640625 0.87890625 C9.00532874 1.00027349 10.7511037 0.69633257 13 0 C13 0.99 13 1.98 13 3 C17.29 3 21.58 3 26 3 C26 4.98 26 6.96 26 9 C13.13 9 0.26 9 -13 9 C-13 7.02 -13 5.04 -13 3 C-8.71 3 -4.42 3 0 3 C0 2.01 0 1.02 0 0 Z " fill="#3D4B5F" transform="translate(1127,264)"/>
<path d="M0 0 C6.6 0 13.2 0 20 0 C20 0.99 20 1.98 20 3 C13.4 3 6.8 3 0 3 C0 2.01 0 1.02 0 0 Z " fill="#52637F" transform="translate(267,539)"/>
</svg>
